<svg width="148" height="222" viewBox="0 0 148 222" fill="white" xmlns="http://www.w3.org/2000/svg">
<path d="M5.73153 7.91568L5.73095 7.92218C77.8931 23.963 113.234 81.6257 120.581 128.466C119.976 131.057 
119.282 133.254 118.538 134.956C113.54 146.395 100.465 152.332 89.1538 147.355C90.8836 138.791 92.0826 130.083 
92.6428 121.721C65.0489 125.266 31.2043 125.371 5.57515 111.903C17.6369 153.232 34.2863 183.214 53.2655 211.664C58.5542 
210.726 63.616 206.743 68.2497 200.664C92.883 215.696 122.613 199.556 133.794 174.354C147.357 143.785 155.205 36.679 85.387 
7.91611H67.2966C113.641 31.7091 123.875 80.6471 122.673 111.558C111.935 70.9619 82.8751 28.3709 32.3759 7.91611H5.73211L5.73153 7.91568Z" 
fill="white"/>

</svg>
